<svg id="svg3370" xmlns:rdf="http://www.w3.org/1999/02/22-rdf-syntax-ns#" xmlns="http://www.w3.org/2000/svg" version="1.1" xmlns:cc="http://creativecommons.org/ns#" xmlns:dc="http://purl.org/dc/elements/1.1/" viewBox="0 0 248 249" class="svg-chart"><g id="layer1" transform="translate(-166.71 -256.43)"><path id="path3403" d="m277.48 504.36c-37.815-4.013-72.887-26.62-92.866-59.861-36.62-60.93-14.017-141.28 48.922-173.91 17.561-9.1036 32.758-13.041 53.643-13.897 35.024-1.4358 65.735 10.767 90.933 36.132 18.008 18.128 28.685 38.024 34.131 63.604 2.5296 11.881 2.4996 37.21-0.058 49-7.0534 32.515-26.182 61.355-52.025 78.436-25.677 16.972-52.71 23.672-82.679 20.492z" fill="#e4e4e4"/><path id="path3401" d="m290.58 381.08v-124.65h6.369c3.503 0 10.363 0.69657 15.246 1.548 44.834 7.8185 82.211 40.751 96.311 84.86 17.633 55.157-5.2291 114.83-55.704 145.41-14.015 8.4898-36.653 15.621-53.472 16.844l-8.75 0.63635v-124.65z" fill="#cfe9e8"/><path id="path3399" d="m290.58 380.78v-124.65l9.75 0.65931c32.75 2.2146 65.078 19.135 85.686 44.847 56.868 70.952 23.675 174.48-63.936 199.41-5.6477 1.6072-23.322 4.3397-28.25 4.3674l-3.25 0.0183v-124.65z" fill="#9edad7"/><path id="path3397" d="m290.58 380.79v-124.65l8.6121 0.66198c54.222 4.1678 98.907 42.345 111.47 95.232 9.7784 41.172-2.4239 85.142-31.957 115.15-21.542 21.891-46.881 34.134-76.979 37.194-5.6958 0.5791-10.533 1.0529-10.75 1.0529-0.21673 0-0.39405-56.091-0.39405-124.65z" fill="#62cac6"/><path id="path3395" d="m290.58 380.81v-124.64l8.25 0.69626c31.558 2.6634 58.864 15.49 80.29 37.717 17.147 17.788 28.788 40.502 32.915 64.226 1.981 11.388 1.9796 31.864-0.003 43.234-7.95 45.589-40.794 82.936-85.452 97.167-8.9239 2.8438-16.693 4.297-30.25 5.6585l-5.75 0.57745v-124.64z" fill="#45c1bc"/><path id="path3393" d="m290.58 380.61v-124.38l7.25 0.65882c45.89 4.17 83.513 29.091 102.73 68.044 5.9381 12.04 8.206 18.711 11.057 32.528 1.8662 9.0428 2.0917 12.656 1.6523 26.472-0.83448 26.238-6.9084 45.322-21.435 67.347-5.1977 7.8807-19.307 22.39-28.286 29.087-18.102 13.502-41.244 22.27-63.045 23.886l-9.919 0.73524v-124.38z" fill="#30bcb7"/><path id="path3391" d="m290.58 380.49v-123.94l7.25 0.54195c41.718 3.1185 77.734 25.255 98.988 60.842 17.443 29.206 21.57 67.425 10.831 100.29-6.4875 19.853-15.788 35.02-30.521 49.77-13.985 14.002-30.059 24.101-48.175 30.266-8.973 3.054-25.284 6.1734-32.28 6.1734h-6.0929v-123.94z" fill="#00b1ab"/></g></svg>
