<svg id="svg3412" xmlns:rdf="http://www.w3.org/1999/02/22-rdf-syntax-ns#" xmlns="http://www.w3.org/2000/svg" version="1.1" xmlns:cc="http://creativecommons.org/ns#" xmlns:dc="http://purl.org/dc/elements/1.1/" viewBox="0 0 201 201" class="svg-chart"><g id="layer1" transform="translate(0 -851.36)"><path id="path3445" d="m87.541 1050.4c-39.853-6.3-68.771-29.9-81.634-66.56-16.955-48.37 7.955-103.48 55.64-123.09 14.141-5.8154 22.179-7.211 40.995-7.118 14.829 0.0732 17.375 0.3481 25.139 2.7133 11.88 3.6194 18.483 6.6808 28.518 13.222 20.226 13.184 35.035 33.936 41.444 58.075 3.0046 11.317 3.6813 30.445 1.4641 41.387-8.5496 42.194-40.157 73.186-82.099 80.5-7.9588 1.3879-23.265 1.8325-29.466 0.8559z" fill="#d2efee"/><path id="path3443" d="m87.541 1050.4c-39.853-6.3-68.771-29.9-81.634-66.56-12.206-34.82-2.53-75.91 24.065-102.2 17.545-17.339 39.923-26.962 65.771-28.282 48.049-2.454 89.13 27.941 101.98 75.45 1.6157 5.9751 2.1195 10.937 2.2071 21.742 0.11284 13.917-1.7142 28.034-3.4864 26.938-0.48245-0.29816-0.63124 0.0988-0.33067 0.88205 0.30058 0.78329-0.97208 5.249-2.8281 9.9239-15.125 38.096-52.911 63.235-94.122 62.62-5.0155-0.075-10.244-0.3134-11.619-0.5299z" fill="#e4e4e4"/><path id="path3441" d="m146.79 965.22-46.25-11.645v-50.261-50.261h4.8895c6.5709 0 19.21 2.4727 28.108 5.499 26.424 8.9874 49.172 30.538 59.67 56.529 5.1692 12.798 6.6214 20.56 6.73 35.972 0.12454 17.677-1.4003 26.049-4.7182 25.906-1.1985-0.0517-22.992-5.3344-48.429-11.739z" fill="#9bdbd8"/><path id="path3439" d="m147.54 965.15-46.5-11.718-0.25932-50.32-0.25932-50.32 8.1744 0.71306c36.258 3.1628 68.325 25.685 82.936 58.252 5.671 12.64 8.1536 24.275 8.2771 38.795 0.12941 15.216-1.6873 26.551-4.2324 26.408-0.90022-0.0506-22.562-5.3652-48.137-11.81z" fill="#60cdc9"/><path id="path3437" d="m148.04 965.3c-25.3-6.365-46.331-12.061-46.735-12.658-0.40408-0.59685-0.74158-23.301-0.75-50.453l-0.0153-49.367 7.75 0.72001c30.232 2.8086 58.457 19.199 74.937 43.515 6.9278 10.222 12.73 24.347 15.405 37.5 2.7329 13.438 0.66701 42.62-3.0021 42.408-0.87442-0.0506-22.29-5.2998-47.59-11.665z" fill="#50c3bf"/><path id="path3435" d="m149.04 965.21c-25.3-6.4119-46.562-12.022-47.25-12.467-0.97224-0.62924-1.25-11.795-1.25-50.25v-49.441l2.25 0.006c5.041 0.0132 21.667 3.0407 27.75 5.0532 41.668 13.785 68.817 50.019 69.263 92.441 0.1322 12.575-1.8137 26.565-3.6731 26.408-0.59942-0.0506-21.79-5.3381-47.09-11.75z" fill="#38c1bd"/><path id="path3433" d="m149.04 965.21c-25.3-6.4092-46.562-12.017-47.25-12.462-0.97229-0.62927-1.25-11.813-1.25-50.338v-49.529l3.75 0.5369c2.0625 0.29529 6.4454 0.8307 9.7398 1.1898 37.17 4.0517 72.339 34.569 82.46 71.554 3.0143 11.015 4.173 24.757 2.9882 35.443-1.1568 10.433-2.1551 14.732-3.493 15.04-0.52001 0.12001-21.645-5.0257-46.945-11.435z" fill="#00b1ab"/></g></svg>
